#!OML:ASF E:/inclinewalkrobotboard/Project1/Captureday1/Session1/subject1.ASF
:FULLY-SPECIFIED
:DEGREES
26
root 0 0 0 1.7196456521675232 -10.716682389447994 0.7568681497075396
lowerback 0.04806899474017201 -1.5415978780387314 -2.5156729827114086
upperback -0.6629166562500051 -2.0214480868711653 1.9263905828707881
thorax -0.5237711349104078 -0.9904119899226862 3.3510330707006037
lowerneck -24.42673576938012 -1.558817289226796 -7.5356480415902345
upperneck 28.446800192785986 0.4555065295366867 1.7562587632069584
head 13.696378505716144 -0.5814818052478157 2.177826075611353
rclavicle -1.863151915406429E-15 1.0480660130744659E-15
rhumerus -31.868056375401398 -3.322479761359456 -81.39374971574384
rradius 30.992047392160266
rwrist 19.353605899305325
rhand -17.716254941211012 8.866154924925162
rfingers 7.125019999999941
rthumb 8.54174677485952 -20.966812544336875
lclavicle 2.7144719805754777E-16 4.967019806872216E-16
lhumerus -21.41926122229806 -4.806037932903866 91.79685332743576
lradius 64.85903872879082
lwrist 1.6678904721568784
lhand -29.018545747449124 20.80279329215491
lfingers 7.125020000000025
lthumb -2.378220668410795 50.786500689004974
rfemur 3.520214881232153 8.884055230457387 38.519155748196056
rtibia 21.22933160300237
rfoot -23.350662481492606 -8.632966485481695
rtoes 6.124860656705972
lfemur -25.915496022634528 2.315936531025758 -12.617071477776447
ltibia 51.23041499326571
lfoot -4.812537703907309 -1.8646702769855574
ltoes -6.103576061955935
27
root 0 0 0 1.7385930429535044 -10.691182018145723 0.7705672740240648
lowerback 0.027526189860444195 -1.5341030629317982 -2.5387113877490166
upperback -0.6579268867825986 -2.011963249377199 1.9098566020666916
thorax -0.5087772807918034 -0.9852175198517809 3.3480917431517243
lowerneck -24.44233644379888 -1.6027477899356544 -7.5794745780291155
upperneck 28.32081016653589 0.37174332584994463 1.86473964304603
head 13.641035765692468 -0.6007280656108778 2.2077534230448803
rclavicle -5.195422883707701E-15 1.1209406209232555E-15
rhumerus -31.123202423592762 -1.6568333266958395 -82.07371567475784
rradius 31.656020854952672
rwrist 18.73709323775
rhand -18.122729383140182 8.976583466178434
rfingers 7.125019999999943
rthumb 8.150781966132854 -20.8778404650203
lclavicle 3.3671917164262256E-16 1.033976637984045E-16
lhumerus -21.02346829831979 -4.20799693699592 91.48827986746687
lradius 64.72869373217
lwrist 1.6982953154206117
lhand -28.88876273990406 20.7067976747566
lfingers 7.125020000000026
lthumb -2.249524039578019 50.69102325899755
rfemur 6.24860472736175 8.994055590986425 38.052429356837436
rtibia 20.487202937937845
rfoot -23.591174037527807 -8.388513814104702
rtoes 2.608809080791062
lfemur -29.569321115398328 0.6109565351924369 -11.064573224403444
ltibia 41.36767494819654
lfoot -6.588769638717743 1.4591647931749376
ltoes -5.247199637954875
28
root 0 0 0 1.751645182227255 -10.689067818177307 0.7799867238862984
lowerback 0.005566095643488644 -1.53227124444647 -2.554034075829754
upperback -0.6560810603478264 -2.009685554395446 1.8890147477170447
thorax -0.4958302288825177 -0.9837387080488537 3.3357843219964662
lowerneck -24.436510820456895 -1.6249312679870096 -7.608406885033046
upperneck 28.310070984418033 0.33103858846278955 1.914177483884858
head 13.629752683622955 -0.6113624179205168 2.222199261958702
rclavicle -8.479193850601491E-15 1.476797292976868E-15
rhumerus -30.863960428117686 -0.5741947423435638 -82.22105623288
rradius 31.869188066869302
rwrist 18.444287439603087
rhand -18.414193830247147 9.063731357666123
rfingers 7.125019999999946
rthumb 7.871229421227726 -20.816994174017026
lclavicle 5.985871583195975E-16 -1.7121851005600436E-16
lhumerus -20.71898081232825 -3.6444681054939867 91.2135788631745
lradius 64.62862437296585
lwrist 1.712016704810917
lhand -28.765604399485937 20.627297058851564
lfingers 7.125020000000027
lthumb -2.127355461171846 50.61213148152943
rfemur 10.041578691088537 8.862515495500093 37.17188952799378
rtibia 21.990864993284056
rfoot -22.68627536329931 -7.285055103224627
rtoes -1.6038595722317757
lfemur -31.947930223300396 -2.6781423739611245 -9.228916957304028
ltibia 27.572173023463385
lfoot -6.382160867644059 4.374500864260594
ltoes -4.205220331887869
29
root 0 0 0 1.7537529031648142 -10.704589391301782 0.7814187208180607
lowerback -0.005120104359663369 -1.5344823092573892 -2.560933494207954
upperback -0.6574693469035601 -2.012274772485089 1.866946790301419
thorax -0.49124749239424315 -0.9845737748978682 3.31705951982212
lowerneck -24.391475609041493 -1.6192888269561734 -7.617127630749435
upperneck 28.422844278675946 0.3397179467326621 1.898031469762612
head 13.66019744258315 -0.6114259419087159 2.2189987969935574
rclavicle -9.911207609327876E-15 1.4988085211622985E-15
rhumerus -30.83469157157336 -0.0841204934222679 -82.11386468577147
rradius 31.83114991087791
rwrist 18.33171398336991
rhand -18.54399118632544 9.141608529577697
rfingers 7.125019999999944
rthumb 7.746273975550828 -20.7474042091389
lclavicle 8.585172819968781E-17 -1.7061193004134486E-16
lhumerus -20.512182282810194 -2.9831608173259516 91.00217808670678
lradius 64.47266596090773
lwrist 1.6354113290419368
lhand -28.70254151838661 20.54733666945196
lfingers 7.125020000000028
lthumb -2.060862612144173 50.52846164932435
rfemur 13.631921659825041 8.091408760861643 35.580028952741706
rtibia 28.264462127113607
rfoot -19.78454955160933 -5.266516418372092
rtoes -5.871138692648857
lfemur -30.8245996658179 -4.913479949076971 -9.011623736706822
ltibia 20.51829163284689
lfoot -4.849586072335226 4.1871549527277985
ltoes -3.5801520567912393
30
root 0 0 0 1.7477302337880192 -10.727938874518863 0.7826424546844093
lowerback -0.015545548224476624 -1.539148608050619 -2.567349356575476
upperback -0.6661264322712869 -2.0175636297286927 1.8445354525395936
thorax -0.4927868186530827 -0.9863601639899677 3.296897706023091
lowerneck -24.36454451900255 -1.6114591544962096 -7.617095169384375
upperneck 28.55569662328246 0.3555504656994142 1.8654285519409457
head 13.702582407525105 -0.6111652288299814 2.210183949936447
rclavicle -1.1000776184446237E-14 1.225391109586863E-15
rhumerus -30.890595775594374 0.14942757975477328 -81.9110311614431
rradius 31.698547482281235
rwrist 18.29456026489596
rhand -18.596106626341644 9.208607253834765
rfingers 7.12501999999994
rthumb 7.695439861268018 -20.678423373930542
lclavicle -2.028253047805425E-15 6.706280919446646E-17
lhumerus -20.202874475415236 -2.260655518310126 90.8175960616881
lradius 64.24487655989748
lwrist 1.5035826004967494
lhand -28.71979857101942 20.487897056311574
lfingers 7.125020000000028
lthumb -2.072521735106058 50.460759048409656
rfemur 13.810636958638375 6.842677638570185 33.73108671364823
rtibia 35.00951881192778
rfoot -14.695152095221369 -2.9491937963934163
rtoes -7.173246528335903
lfemur -29.70625347026666 -5.239115450166022 -9.786900245956616
ltibia 19.844668510045413
lfoot -3.7574941758383726 3.3646885990392823
ltoes -2.395662454252186
